<?xml version="1.0" encoding="UTF-8"?>
<svg width="496px" height="90px" viewBox="0 0 496 90" version="1.1" xmlns="http://www.w3.org/2000/svg" xmlns:xlink="http://www.w3.org/1999/xlink">
    <g stroke="none" stroke-width="1" fill="none" fill-rule="evenodd">
        <g fill-rule="nonzero">
            <g transform="translate(420.367799, 6.603970)" fill="#D40000">
                <path d="M40.03125,0.625 C39.78112,0.618 39.5316,0.6366 39.28125,0.6562 C37.72355,0.77855 36.19418,1.42614 34.96875,2.56245 L15.875,20.25 C19.87315,22.19908 23.00061,25.59542 24.53125,29.75 L51.125,29.75 C52.91431,29.75 54.34375,31.21069 54.34375,33 L54.34375,36 C54.34375,37.78931 52.91431,39.21875 51.125,39.21875 L49.0625,39.21875 L49.0625,43.78125 C49.0625,45.54495 47.6387,46.96875 45.875,46.96875 L40.09375,46.96875 C38.33005,46.96875 36.90625,45.54495 36.90625,43.78125 L36.90625,39.21875 L25.15625,39.21875 C24.19625,43.54643 21.57479,47.26619 17.96875,49.6875 L33.71875,65.5 C36.38084,68.17385 40.76152,68.22227 43.5625,65.625 L71.75,39.5 C74.55098,36.90273 74.66209,32.67385 72,30 L44.8125,2.6875 C43.50225,1.37146 41.78217,0.6712 40.03125,0.625 Z" id="rect3105" stroke="#D40000" stroke-linejoin="round"></path>
                <path d="M15.9148987,35.6457279 C15.9148987,39.9127812 12.385866,43.3719119 8.03258375,43.3719119 C3.67930165,43.3719119 0.150269124,39.9127812 0.150269124,35.6457279 C0.150269124,31.378673 3.67930165,27.9195439 8.03258375,27.9195439 C12.385866,27.9195439 15.9148987,31.378673 15.9148987,35.6457279 Z" id="path3107" stroke="#D40000" stroke-width="0.5" transform="translate(8.032584, 35.645728) scale(-1, 1) translate(-8.032584, -35.645728) "></path>
            </g>
            <g transform="translate(0.047149, 0.712522)" fill="#FFFFFF">
                <path d="M13.995769,29.677271 L13.995769,58.3677375 L22.113069,58.3677375 C27.4934882,58.3677375 31.3033359,57.2325701 33.5426122,54.9622074 C35.7818328,52.6918448 36.9014431,48.9131113 36.9014988,43.6259791 C36.9014431,38.5254764 35.8751197,34.9333446 33.8225287,32.8495559 C31.7698263,30.7347364 28.2088087,29.6772988 23.1393924,29.677271 L13.995769,29.677271 M0.700208687,18.8075608 L26.3116773,18.8075608 C34.0246318,18.8075886 40.0426416,21.0779513 44.3656789,25.618621 C48.6886326,30.1593741 50.8501512,36.4883589 50.8502069,44.6056311 C50.8501512,47.9334314 50.3991901,50.9968722 49.4973235,53.7959258 C48.5953456,56.5638931 47.2269052,59.0986151 45.3920022,61.4000641 C43.2148987,64.1680314 40.6024468,66.1584775 37.5546187,67.3714026 C34.5067071,68.5532414 30.4636142,69.1441607 25.4253122,69.1441607 L13.995769,69.1441607 L13.995769,87.384764 L0.700208687,87.384764 L0.700208687,18.8075608" id="path3039"></path>
                <path d="M77.7212718,59.0208574 L94.3757188,59.0208574 L94.3757188,48.6176377 L78.7009517,48.6176377 C75.5908396,48.6176655 73.4448781,49.0375124 72.263095,49.8772341 C71.0812285,50.7169557 70.4903091,52.1786831 70.490337,54.262444 C70.4903091,56.0352021 70.9568273,57.2792136 71.8898638,57.9945341 C72.8539866,58.6787404 74.7977614,59.0208574 77.7212718,59.0208574 M60.0404737,18.8075608 L87.2847421,18.8075608 C94.157975,18.8075886 99.3362632,20.393745 102.819607,23.5659742 C106.302839,26.7072006 108.044455,31.3878563 108.04451,37.6079693 L108.04451,69.1441607 L72.3097385,69.1441607 C67.302495,69.1441607 63.4460038,67.8845643 60.7402371,65.3653994 C58.0655847,62.8462622 56.7282306,59.2696597 56.7282306,54.6356475 C56.7282306,48.9131113 58.2677156,44.8078178 61.3467136,42.3197392 C64.4567701,39.8316884 69.603944,38.587677 76.7882354,38.5876492 L94.2824318,38.5876492 L94.2824318,37.3280528 C94.2823762,34.3424253 93.3960111,32.2431072 91.6233086,31.0301543 C89.8816369,29.817257 86.7559955,29.2108084 82.2464401,29.2107528 L60.0404737,29.2107528 L60.0404737,18.8075608" id="path3041"></path>
                <path d="M118.867577,58.647654 L146.904951,58.647654 C149.392974,58.647654 151.196819,58.2588935 152.316485,57.4813724 C153.467154,56.7038513 154.042516,55.459812 154.042572,53.7492545 C154.042516,52.0387527 153.467154,50.7947134 152.316485,50.0171645 C151.165705,49.2085849 149.36186,48.8042672 146.904951,48.8042394 L135.428765,48.8042394 C128.617677,48.8042672 124.014751,47.7623867 121.620015,45.6786258 C119.225251,43.5948927 118.027855,39.893889 118.027883,34.5756426 C118.027855,29.1641371 119.474054,25.1832448 122.366422,22.6329378 C125.25879,20.0827421 129.737287,18.8075886 135.801968,18.8075608 L164.352477,18.8075608 L164.352477,29.3040675 L140.886942,29.3040675 C137.061509,29.3040954 134.573458,29.6462124 133.422762,30.3303909 C132.272009,30.9835387 131.696647,32.1653774 131.696647,33.8758792 C131.696647,35.4309492 132.194252,36.5816737 133.189489,37.3280528 C134.215812,38.0434011 135.817498,38.4010753 137.994573,38.4010474 L150.030565,38.4010474 C155.535358,38.4010753 159.733966,39.691758 162.62639,42.2730957 C165.518703,44.8233749 166.964873,48.5243507 166.964929,53.3760511 C166.964873,58.0411775 165.674218,61.8354682 163.09288,64.7589507 C160.542573,67.6824055 157.245915,69.1441607 153.20285,69.1441607 L118.867577,69.1441607 L118.867577,58.647654" id="path3043"></path>
                <path d="M175.595418,58.647654 L203.632765,58.647654 C206.120788,58.647654 207.924632,58.2588935 209.044298,57.4813724 C210.194995,56.7038513 210.770357,55.459812 210.770385,53.7492545 C210.770357,52.0387527 210.194995,50.7947134 209.044298,50.0171645 C207.893518,49.2085849 206.089673,48.8042672 203.632765,48.8042394 L192.156578,48.8042394 C185.34549,48.8042672 180.742564,47.7623867 178.347828,45.6786258 C175.953064,43.5948927 174.755696,39.893889 174.755696,34.5756426 C174.755696,29.1641371 176.201867,25.1832448 179.094235,22.6329378 C181.986603,20.0827421 186.465128,18.8075886 192.529781,18.8075608 L221.08029,18.8075608 L221.08029,29.3040675 L197.614755,29.3040675 C193.78935,29.3040954 191.301271,29.6462124 190.150575,30.3303909 C188.999822,30.9835387 188.42446,32.1653774 188.424488,33.8758792 C188.42446,35.4309492 188.922065,36.5816737 189.91733,37.3280528 C190.943625,38.0434011 192.545311,38.4010753 194.722386,38.4010474 L206.758378,38.4010474 C212.263171,38.4010753 216.461779,39.691758 219.354203,42.2730957 C222.246516,44.8233749 223.692714,48.5243507 223.692769,53.3760511 C223.692714,58.0411775 222.402031,61.8354682 219.820721,64.7589507 C217.270414,67.6824055 213.973728,69.1441607 209.930663,69.1441607 L175.595418,69.1441607 L175.595418,58.647654" id="path3045"></path>
                <path d="M246.505157,0.566929697 L246.505157,18.8075608 L257.9347,18.8075608 C262.972974,18.8075886 267.016095,19.4140651 270.064006,20.6269345 C273.111834,21.8088289 275.724286,23.783718 277.90139,26.5516296 C279.736293,28.8531343 281.104705,31.4033856 282.006683,34.2024392 C282.90855,36.9704343 283.359511,40.018318 283.359567,43.3460626 C283.359511,51.4322762 281.19802,57.7612889 276.875066,62.3330727 C272.552001,66.8737981 266.534019,69.1441607 258.821065,69.1441607 L233.209568,69.1441607 L233.209568,0.566929697 L246.505157,0.566929697 M254.622457,29.677271 L246.505157,29.677271 L246.505157,58.3677375 L255.64878,58.3677375 C260.718168,58.3677375 264.279214,57.3103278 266.331916,55.1954526 C268.384507,53.0495189 269.410831,49.4262729 269.410886,44.3257425 C269.410831,39.0697245 268.275663,35.3221052 266.005356,33.082801 C263.766052,30.812494 259.971762,29.6772988 254.622457,29.677271" id="path3047"></path>
                <path d="M302.113359,43.9991825 C302.113332,48.7887101 303.23297,52.5208002 305.472246,55.1954526 C307.711467,57.8701329 310.837108,59.2074592 314.849115,59.2074592 C318.829979,59.2074592 321.955621,57.8701329 324.226011,55.1954526 C326.496318,52.5208002 327.631513,48.7887101 327.631541,43.9991825 C327.631513,39.2096827 326.496318,35.4931498 324.226011,32.8495559 C321.986707,30.1749312 318.861093,28.8375771 314.849115,28.8375493 C310.868194,28.8375771 307.742581,30.1749312 305.472246,32.8495559 C303.23297,35.5242362 302.113332,39.2407969 302.113359,43.9991825 M341.580249,43.9991825 C341.580194,51.8987944 339.169873,58.21225 334.349314,62.9395492 C329.559759,67.635762 323.090788,69.9838824 314.942429,69.9838824 C306.794015,69.9838824 300.293958,67.6202049 295.44223,62.8929057 C290.590529,58.1655787 288.164651,51.8676802 288.164651,43.9991825 C288.164651,36.0995984 290.590529,29.7861707 295.44223,25.0588158 C300.293958,20.3004302 306.794015,17.9212235 314.942429,17.9211679 C323.028587,17.9212235 329.482001,20.3004302 334.302671,25.0588158 C339.154316,29.7861707 341.580194,36.0995984 341.580249,43.9991825" id="path3049"></path>
                <polyline id="path3051" points="363.412984 69.1441607 349.557591 69.1441607 349.557591 0.566929697 363.412984 0.566929697 363.412984 69.1441607"></polyline>
                <path d="M369.757554,18.8075608 L379.134423,18.8075608 L379.134423,0.566929697 L392.430011,0.566929697 L392.430011,18.8075608 L406.472006,18.8075608 L406.472006,28.8375493 L392.430011,28.8375493 L392.430011,49.1774428 C392.429983,52.9095607 393.067546,55.5064833 394.342699,56.9682107 C395.617825,58.3988517 397.841516,59.1141722 401.013829,59.1141444 L406.472006,59.1141444 L406.472006,69.1441607 L394.342699,69.1441607 C389.42877,69.1441607 385.665566,67.7912774 383.053114,65.0855107 C380.440662,62.3486298 379.134423,58.4454952 379.134423,53.3760511 L379.134423,28.8375493 L369.757554,28.8375493 L369.757554,18.8075608" id="path3053"></path>
            </g>
        </g>
    </g>
</svg>