<svg id="warning" xmlns="http://www.w3.org/2000/svg" xmlns:xlink="http://www.w3.org/1999/xlink" viewBox="0 0 170 170" shape-rendering="geometricPrecision" text-rendering="geometricPrecision"><style><![CDATA[#warning-bar {animation-name: warning-bar_c_o, warning-bar_s_do;animation-duration: 1000ms;animation-fill-mode: forwards;animation-timing-function: linear;animation-direction: normal;animation-iteration-count: 1;}@keyframes warning-bar_c_o { 0% {opacity: 0} 30% {opacity: 0} 40% {opacity: 1} 100% {opacity: 1}}@keyframes warning-bar_s_do { 0% {stroke-dashoffset: 31.0938} 40% {stroke-dashoffset: 31.0938;animation-timing-function: cubic-bezier(0.23,1,0.32,1)} 90% {stroke-dashoffset: 62.19} 100% {stroke-dashoffset: 62.19}} #warning-dot {animation: warning-dot_c_o 1000ms linear 1 normal forwards}@keyframes warning-dot_c_o { 0% {opacity: 0} 90% {opacity: 0} 100% {opacity: 1}} #warning-triangle {animation: warning-triangle_s_do 1000ms linear 1 normal forwards}@keyframes warning-triangle_s_do { 0% {stroke-dashoffset: 1454.19;animation-timing-function: cubic-bezier(0.23,1,0.32,1)} 70% {stroke-dashoffset: 969.46} 100% {stroke-dashoffset: 969.46}}]]></style><path id="warning-bar" d="M85.0508,62.1046v31.0938" transform="matrix(-.83008 0 0-.83008 155.649763 142.108459)" opacity="0" fill="none" stroke="#dd6a00" stroke-width="6.7" stroke-linecap="round" stroke-linejoin="round" stroke-dashoffset="31.0938" stroke-dasharray="31.0938"/><path id="warning-dot" d="M85.0508,124.292h.1166" opacity="0" fill="none" stroke="#dd6a00" stroke-width="6.7" stroke-linecap="round" stroke-linejoin="round" stroke-dashoffset="0.23" stroke-dasharray="0.1166"/><path id="warning-triangle" d="M71.6579,22.1601L5.85989,132.095c-1.02132,1.765-1.68454,3.715-1.95041,5.736-.26587,2.022-.12938,4.078.40084,6.047s1.44452,3.814,2.68967,5.429s2.79659,2.969,4.56611,3.983c2.2835,1.379,4.9024,2.104,7.5699,2.096h131.711c2.044-.015,4.066-.434,5.947-1.234s3.584-1.964,5.014-3.425c1.429-1.462,2.554-3.192,3.312-5.091.757-1.898,1.131-3.928,1.101-5.971.007-2.668-.719-5.286-2.097-7.57L98.3255,22.1601c-1.0526-1.7622-2.4446-3.2975-4.0957-4.5169-1.651-1.2193-3.5275-2.0984-5.5214-2.586-1.9937-.4876-4.064-.574-6.0915-.2543s-3.972,1.0392-5.719,2.1167c-2.1313,1.3146-3.9253,3.1092-5.24,5.2405Z" fill="none" stroke="#dd6a00" stroke-width="4" stroke-linecap="round" stroke-linejoin="round" stroke-dashoffset="1454.19" stroke-dasharray="484.73108"/></svg>