<?xml version="1.0" encoding="UTF-8"?>
<svg viewBox="0 0 1211 445" version="1.1" xmlns="http://www.w3.org/2000/svg" xmlns:xlink="http://www.w3.org/1999/xlink">
    <defs>
        <circle id="path-1" cx="25.6226415" cy="25.6226415" r="25.6226415"></circle>
        <circle id="path-3" cx="25.6226415" cy="25.6226415" r="25.6226415"></circle>
        <circle id="path-5" cx="25.6226415" cy="25.6226415" r="25.6226415"></circle>
        <circle id="path-7" cx="25.6226415" cy="25.6226415" r="25.6226415"></circle>
        <circle id="path-9" cx="25.6226415" cy="25.6226415" r="25.6226415"></circle>
        <circle id="path-11" cx="25.6226415" cy="25.6226415" r="25.6226415"></circle>
        <circle id="path-13" cx="25.6226415" cy="25.6226415" r="25.6226415"></circle>
        <circle id="path-15" cx="25.6226415" cy="25.6226415" r="25.6226415"></circle>
        <circle id="path-17" cx="25.6226415" cy="25.6226415" r="25.6226415"></circle>
        <circle id="path-19" cx="25.6226415" cy="25.6226415" r="25.6226415"></circle>
        <circle id="path-21" cx="25.6226415" cy="25.6226415" r="25.6226415"></circle>
        <circle id="path-23" cx="25.6226415" cy="25.6226415" r="25.6226415"></circle>
        <circle id="path-25" cx="25.6226415" cy="25.6226415" r="25.6226415"></circle>
        <circle id="path-27" cx="25.6226415" cy="25.6226415" r="25.6226415"></circle>
        <circle id="path-29" cx="25.6226415" cy="25.6226415" r="25.6226415"></circle>
        <circle id="path-31" cx="25.6226415" cy="25.6226415" r="25.6226415"></circle>
        <circle id="path-33" cx="25.6226415" cy="25.6226415" r="25.6226415"></circle>
        <radialGradient cx="14.6639205%" cy="14.5530682%" fx="14.6639205%" fy="14.5530682%" r="99.826875%" id="radialGradient-35">
            <stop stop-color="#FFFFFF" stop-opacity="0.1" offset="0%"></stop>
            <stop stop-color="#FFFFFF" stop-opacity="0" offset="100%"></stop>
        </radialGradient>
    </defs>
    <g id="Artboard" stroke="none" stroke-width="1" fill="none" fill-rule="evenodd">
        <rect id="Rectangle" stroke="#E7E7E7" fill="#F0F0F0" fill-rule="nonzero" x="11.5" y="87.5" width="323" height="240" rx="3"></rect>
        <rect id="Rectangle-2" fill="#FFFFFF" fill-rule="nonzero" x="12" y="115" width="322" height="212"></rect>
        <circle id="Oval" stroke="#D15449" fill="#EE6A5F" fill-rule="nonzero" cx="28.5" cy="102.5" r="5.5"></circle>
        <circle id="Oval" stroke="#E9AE42" fill="#F6BE4F" fill-rule="nonzero" cx="47.5" cy="102.5" r="5.5"></circle>
        <circle id="Oval" stroke="#50A942" fill="#63C756" fill-rule="nonzero" cx="66.5" cy="102.5" r="5.5"></circle>
        <rect id="Rectangle-3" stroke="#DDDDDD" fill="#F3F3F3" fill-rule="nonzero" x="83.5" y="184.5" width="177" height="27"></rect>
        <text id="email@passbolt.com" font-family="Helvetica" font-size="14" font-weight="normal" fill="#333333">
            <tspan x="95" y="202">email@passbolt.com</tspan>
        </text>
        <rect id="Rectangle-3" stroke="#E0E0E0" fill="#FFFFFF" fill-rule="nonzero" x="83.5" y="225.5" width="177" height="27"></rect>
        <text id="•••••••••••••" font-family="Helvetica" font-size="16" font-weight="normal" fill="#000000">
            <tspan x="93" y="244">•••••••••••••</tspan>
        </text>
        <rect id="Rectangle-3" fill="#2894DF" fill-rule="nonzero" x="190" y="265" width="71" height="30" rx="3"></rect>
        <rect id="Rectangle-4" fill="#4A4A4A" fill-rule="nonzero" x="461" y="37" width="192" height="351" rx="24"></rect>
        <rect id="Rectangle-5" fill="#FFFFFF" fill-rule="nonzero" x="471" y="80" width="172" height="255"></rect>
        <circle id="Oval-2" stroke="#979797" fill="#4A4A4A" fill-rule="nonzero" cx="559" cy="362" r="15"></circle>
        <text id="login" font-family="Helvetica" font-size="14" font-weight="normal" fill="#FFFFFF">
            <tspan x="211" y="284">login</tspan>
        </text>
        <rect id="Rectangle" stroke="#E7E7E7" fill="#F0F0F0" fill-rule="nonzero" x="844.5" y="80.5" width="323" height="240" rx="3"></rect>
        <rect id="Rectangle-2" fill="#FFFFFF" fill-rule="nonzero" x="845" y="108" width="322" height="212"></rect>
        <circle id="Oval" stroke="#D15449" fill="#EE6A5F" fill-rule="nonzero" cx="861.5" cy="95.5" r="5.5"></circle>
        <circle id="Oval" stroke="#E9AE42" fill="#F6BE4F" fill-rule="nonzero" cx="880.5" cy="95.5" r="5.5"></circle>
        <circle id="Oval" stroke="#50A942" fill="#63C756" fill-rule="nonzero" cx="899.5" cy="95.5" r="5.5"></circle>
        <rect id="Rectangle-3" stroke="#E0E0E0" fill="#FFFFFF" fill-rule="nonzero" x="916.5" y="218.5" width="177" height="27"></rect>
        <text id="123-456" font-family="Helvetica" font-size="14" font-weight="normal" fill="#000000">
            <tspan x="926" y="237">123 456</tspan>
        </text>
        <rect id="Rectangle-3" fill="#2894DF" fill-rule="nonzero" x="1023" y="259" width="71" height="30" rx="3"></rect>
        <text id="login" font-family="Helvetica" font-size="14" font-weight="normal" fill="#FFFFFF">
            <tspan x="1044" y="278">login</tspan>
        </text>
        <g id="authenticator" transform="translate(531.000000, 115.000000)">
            <g id="logo_authenticator_24dp">
                <g id="Group" transform="translate(2.113208, 2.113208)">
                    <g id="Clipped">
                        <g id="Oval-Clipped">
                            <mask id="mask-2" fill="white">
                                <use xlink:href="#path-1"></use>
                            </mask>
                            <g id="path-1"></g>
                            <circle id="Oval" fill="#616161" fill-rule="nonzero" mask="url(#mask-2)" cx="25.6226415" cy="25.6226415" r="25.6226415"></circle>
                        </g>
                        <g id="Group-Clipped">
                            <mask id="mask-4" fill="white">
                                <use xlink:href="#path-3"></use>
                            </mask>
                            <g id="path-3"></g>
                            <g id="Group" mask="url(#mask-4)">
                                <g transform="translate(-2.641509, -2.641509)">
                                    <g transform="translate(0.312178, 0.312178)">
                                        <path d="M27.9519726,44.2572899 C18.9461964,44.2572899 11.6466552,36.9577487 11.6466552,27.9519726 C11.6466552,18.9461964 18.9461964,11.6466552 27.9519726,11.6466552 C32.4534048,11.6466552 36.5297341,13.4722684 39.4821612,16.4217839 L46.0712564,9.83268868 C41.432976,5.1973199 35.0273156,2.32933105 27.9519726,2.32933105 C13.8012864,2.32933105 2.32933105,13.8012864 2.32933105,27.9519726 C2.32933105,42.1026587 13.8012864,53.5746141 27.9519726,53.5746141 C35.0273156,53.5746141 41.432976,50.7066252 46.0712564,46.0712564 L39.4821612,39.4821612 C36.5297341,42.4316767 32.4534048,44.2572899 27.9519726,44.2572899 Z" id="Shape" fill="#9E9E9E" fill-rule="nonzero"></path>
                                    </g>
                                </g>
                            </g>
                        </g>
                        <g id="Shape-Clipped">
                            <mask id="mask-6" fill="white">
                                <use xlink:href="#path-5"></use>
                            </mask>
                            <g id="path-5"></g>
                            <path d="M41.9279589,25.6226415 L33.7753002,25.6226415 C33.7753002,21.1212093 30.1240738,17.4699828 25.6226415,17.4699828 C21.1212093,17.4699828 17.4699828,21.1212093 17.4699828,25.6226415 C17.4699828,27.8151243 18.3376587,29.8037907 19.746904,31.2712693 C19.746904,31.2712693 19.746904,31.2712693 19.746904,31.2712693 L19.7410806,31.2770926 L29.835819,41.371831 L29.8387307,41.3747427 C36.8005189,39.5171012 41.9279589,33.1696741 41.9279589,25.6226415 Z" id="Shape" fill="#424242" fill-rule="nonzero" mask="url(#mask-6)"></path>
                        </g>
                        <g id="Shape-Clipped">
                            <mask id="mask-8" fill="white">
                                <use xlink:href="#path-7"></use>
                            </mask>
                            <g id="path-7"></g>
                            <path d="M51.245283,25.6226415 L41.9279589,25.6226415 C41.9279589,33.1696741 36.7976072,39.5171012 29.8387307,41.3747427 L37.033452,48.569464 C45.4568954,44.3737564 51.245283,35.673705 51.245283,25.6226415 Z" id="Shape" fill="#616161" fill-rule="nonzero" mask="url(#mask-8)"></path>
                        </g>
                        <g id="Shape-Clipped">
                            <mask id="mask-10" fill="white">
                                <use xlink:href="#path-9"></use>
                            </mask>
                            <g id="path-9"></g>
                            <path d="M25.6226415,50.9541166 C11.5214537,50.9541166 0.0815265867,39.5607761 0.00291166381,25.4770583 C0.00291166381,25.5265566 0,25.5731432 0,25.6226415 C0,39.7733276 11.4719554,51.245283 25.6226415,51.245283 C39.7733276,51.245283 51.245283,39.7733276 51.245283,25.6226415 C51.245283,25.5731432 51.2423713,25.5265566 51.2423713,25.4770583 C51.1637564,39.5607761 39.7238293,50.9541166 25.6226415,50.9541166 Z" id="Shape" fill-opacity="0.1" fill="#212121" fill-rule="nonzero" mask="url(#mask-10)"></path>
                        </g>
                        <g id="Shape-Clipped">
                            <mask id="mask-12" fill="white">
                                <use xlink:href="#path-11"></use>
                            </mask>
                            <g id="path-11"></g>
                            <path d="M29.8387307,41.3747427 L30.0658405,41.6018525 C36.9082505,39.6685077 41.9279589,33.3793139 41.9279589,25.9138079 L41.9279589,25.6226415 C41.9279589,33.1696741 36.7976072,39.5171012 29.8387307,41.3747427 Z" id="Shape" fill-opacity="0.05" fill="#FFFFFF" fill-rule="nonzero" mask="url(#mask-12)"></path>
                        </g>
                        <g id="Group-Clipped">
                            <mask id="mask-14" fill="white">
                                <use xlink:href="#path-13"></use>
                            </mask>
                            <g id="path-13"></g>
                            <g id="Group" mask="url(#mask-14)">
                                <g transform="translate(20.603774, 20.603774)">
                                    <g transform="translate(0.360206, 0.360206)">
                                        <g>
                                            <path d="M25.6226415,2.32933105 L4.65866209,2.32933105 C3.37170669,2.32933105 2.32933105,3.37170669 2.32933105,4.65866209 C2.32933105,5.94561747 3.37170669,6.98799312 4.65866209,6.98799312 L25.6226415,6.98799312 C26.9095969,6.98799312 27.9519726,5.94561747 27.9519726,4.65866209 C27.9519726,3.37170669 26.9095969,2.32933105 25.6226415,2.32933105 Z" id="Shape" fill="#9E9E9E" fill-rule="nonzero"></path>
                                        </g>
                                        <path d="M25.6226415,2.32933105 L4.65866209,2.32933105 C3.37170669,2.32933105 2.32933105,3.37170669 2.32933105,4.65866209 C2.32933105,5.94561747 3.37170669,6.98799312 4.65866209,6.98799312 L25.6226415,6.98799312 C26.9095969,6.98799312 27.9519726,5.94561747 27.9519726,4.65866209 C27.9519726,3.37170669 26.9095969,2.32933105 25.6226415,2.32933105 Z" id="Shape" fill="#BDBDBD" fill-rule="nonzero" opacity="0.5"></path>
                                    </g>
                                </g>
                            </g>
                        </g>
                        <g id="Oval-Clipped">
                            <mask id="mask-16" fill="white">
                                <use xlink:href="#path-15"></use>
                            </mask>
                            <g id="path-15"></g>
                            <circle id="Oval" fill="#BDBDBD" fill-rule="nonzero" mask="url(#mask-16)" cx="4.65866209" cy="25.6226415" r="1.74699828"></circle>
                        </g>
                        <g id="Oval-Clipped">
                            <mask id="mask-18" fill="white">
                                <use xlink:href="#path-17"></use>
                            </mask>
                            <g id="path-17"></g>
                            <circle id="Oval" fill="#BDBDBD" fill-rule="nonzero" mask="url(#mask-18)" cx="25.6226415" cy="4.65866209" r="1.74699828"></circle>
                        </g>
                        <g id="Oval-Clipped">
                            <mask id="mask-20" fill="white">
                                <use xlink:href="#path-19"></use>
                            </mask>
                            <g id="path-19"></g>
                            <circle id="Oval" fill="#BDBDBD" fill-rule="nonzero" mask="url(#mask-20)" cx="25.6226415" cy="46.5866209" r="1.74699828"></circle>
                        </g>
                        <g id="Oval-Clipped">
                            <mask id="mask-22" fill="white">
                                <use xlink:href="#path-21"></use>
                            </mask>
                            <g id="path-21"></g>
                            <circle id="Oval" fill="#BDBDBD" fill-rule="nonzero" mask="url(#mask-22)" cx="10.7731561" cy="10.799361" r="1.74699828"></circle>
                        </g>
                        <g id="Oval-Clipped">
                            <mask id="mask-24" fill="white">
                                <use xlink:href="#path-23"></use>
                            </mask>
                            <g id="path-23"></g>
                            <circle id="Oval" fill="#BDBDBD" fill-rule="nonzero" mask="url(#mask-24)" cx="10.7731561" cy="40.4721269" r="1.74699828"></circle>
                        </g>
                        <g id="Oval-Clipped">
                            <mask id="mask-26" fill="white">
                                <use xlink:href="#path-25"></use>
                            </mask>
                            <g id="path-25"></g>
                            <circle id="Oval" fill="#757575" fill-rule="nonzero" mask="url(#mask-26)" cx="40.4721269" cy="40.4721269" r="1.74699828"></circle>
                        </g>
                        <g id="Shape-Clipped">
                            <mask id="mask-28" fill="white">
                                <use xlink:href="#path-27"></use>
                            </mask>
                            <g id="path-27"></g>
                            <path d="M25.6226415,23.5844769 L46.5866209,23.5844769 C47.824078,23.5844769 48.8344254,24.5511492 48.907217,25.7682247 C48.9101287,25.7187264 48.915952,25.6721398 48.915952,25.6226415 C48.915952,24.3356861 47.8735763,23.2933105 46.5866209,23.2933105 L25.6226415,23.2933105 C24.3356861,23.2933105 23.2933105,24.3356861 23.2933105,25.6226415 C23.2933105,25.6721398 23.2962222,25.7187264 23.3020455,25.7682247 C23.3748371,24.5511492 24.3851844,23.5844769 25.6226415,23.5844769 Z" id="Shape" fill-opacity="0.2" fill="#FFFFFF" fill-rule="nonzero" mask="url(#mask-28)"></path>
                        </g>
                        <g id="Shape-Clipped">
                            <mask id="mask-30" fill="white">
                                <use xlink:href="#path-29"></use>
                            </mask>
                            <g id="path-29"></g>
                            <path d="M48.907217,25.7682247 C48.8315137,26.9853002 47.8211664,27.9519726 46.5866209,27.9519726 L25.6226415,27.9519726 C24.3851844,27.9519726 23.3748371,26.9853002 23.3020455,25.7682247 C23.2962222,25.817723 23.2933105,25.8643096 23.2933105,25.9138079 C23.2933105,27.2007633 24.3356861,28.243139 25.6226415,28.243139 L46.5866209,28.243139 C47.8735763,28.243139 48.915952,27.2007633 48.915952,25.9138079 C48.915952,25.8643096 48.9130403,25.817723 48.907217,25.7682247 Z" id="Shape" fill-opacity="0.2" fill="#212121" fill-rule="nonzero" mask="url(#mask-30)"></path>
                        </g>
                        <g id="Shape-Clipped">
                            <mask id="mask-32" fill="white">
                                <use xlink:href="#path-31"></use>
                            </mask>
                            <g id="path-31"></g>
                            <path d="M25.6226415,9.60849057 C30.1240738,9.60849057 34.2004031,11.4341038 37.1528302,14.3836192 L43.8845969,7.64894084 C43.8350986,7.59944254 43.788512,7.54994425 43.7390137,7.50335764 L37.1528302,14.0924528 C34.2004031,11.1429374 30.1240738,9.31732417 25.6226415,9.31732417 C16.6168654,9.31732417 9.31732417,16.6168654 9.31732417,25.6226415 C9.31732417,25.6721398 9.32023585,25.7187264 9.32023585,25.7682247 C9.39885076,16.8294168 16.6663637,9.60849057 25.6226415,9.60849057 Z" id="Shape" fill-opacity="0.1" fill="#212121" fill-rule="nonzero" mask="url(#mask-32)"></path>
                        </g>
                        <g id="Shape-Clipped">
                            <mask id="mask-34" fill="white">
                                <use xlink:href="#path-33"></use>
                            </mask>
                            <g id="path-33"></g>
                            <path d="M25.6226415,41.9279589 C16.6663637,41.9279589 9.39885076,34.7070326 9.32023585,25.7682247 C9.32023585,25.817723 9.31732417,25.8643096 9.31732417,25.9138079 C9.31732417,34.9195841 16.6168654,42.2191252 25.6226415,42.2191252 C27.1629117,42.2191252 28.6507719,42.0007505 30.0629288,41.6018525 L29.835819,41.3747427 C28.493542,41.7328774 27.0813851,41.9279589 25.6226415,41.9279589 Z M25.6226415,0 C11.4719554,0 0,11.4719554 0,25.6226415 C0,25.6721398 0.00291166381,25.7187264 0.00291166381,25.7682247 C0.0815265867,11.6845069 11.5214537,0.291166381 25.6226415,0.291166381 C32.6251929,0.291166381 38.9697084,3.10092195 43.5934306,7.65185247 L43.7419254,7.50335764 C39.1036449,2.86798885 32.6979845,0 25.6226415,0 Z" id="Shape" fill-opacity="0.1" fill="#FFFFFF" fill-rule="nonzero" mask="url(#mask-34)"></path>
                        </g>
                    </g>
                    <circle id="Oval" fill="url(#radialGradient-35)" fill-rule="nonzero" cx="25.6226415" cy="25.6226415" r="25.6226415"></circle>
                </g>
                <rect id="Rectangle-path" x="0" y="0" width="56" height="56"></rect>
            </g>
        </g>
        <rect id="Rectangle-6" stroke="#979797" fill="#FFFFFF" fill-rule="nonzero" x="496.5" y="198.5" width="262" height="96"></rect>
        <text id="email@passbolt.com" font-family="Helvetica" font-size="14" font-weight="normal" fill="#333333">
            <tspan x="516" y="280">email@passbolt.com</tspan>
        </text>
        <text id="Passbolt" font-family="Helvetica-Bold, Helvetica" font-size="14" font-weight="bold" fill="#333333">
            <tspan x="516" y="223">Passbolt</tspan>
        </text>
        <text id="One-Time-Password" font-family="Helvetica-Bold, Helvetica" font-size="14" font-weight="bold" fill="#333333">
            <tspan x="916" y="199">One Time Password</tspan>
        </text>
        <text id="123-456" font-family="Helvetica" font-size="24" font-weight="normal" fill="#333333">
            <tspan x="516" y="256">123 456</tspan>
        </text>
        <path d="M719.811768,268.990987 C713.398683,265.775294 709,259.166518 709,251.535966 C709,240.74655 717.794407,232 728.642857,232 C728.762156,232 728.881207,232.001058 729,232.003164 L729,253.076502 L719.811768,268.990987 Z" id="Combined-Shape" fill="#9B9B9B" fill-rule="nonzero"></path>
        <g id="logo" transform="translate(86.000000, 147.000000)" fill-rule="nonzero">
            <g id="Group" transform="translate(75.000000, 1.000000)" fill="#D40000">
                <path d="M6.49155405,0.119485294 C6.45099243,0.118147059 6.41052973,0.121702941 6.36993243,0.12545 C6.11733243,0.148840441 5.86932649,0.272644412 5.67060811,0.489880147 L2.57432432,3.87132353 C3.22267297,4.24394176 3.72982865,4.89324206 3.97804054,5.6875 L8.29054054,5.6875 C8.58069892,5.6875 8.8125,5.96674956 8.8125,6.30882353 L8.8125,6.88235294 C8.8125,7.22442691 8.58069892,7.49770221 8.29054054,7.49770221 L7.95608108,7.49770221 L7.95608108,8.36994485 C7.95608108,8.70712279 7.72519459,8.97931985 7.43918919,8.97931985 L6.50168919,8.97931985 C6.21568378,8.97931985 5.9847973,8.70712279 5.9847973,8.36994485 L5.9847973,7.49770221 L4.07939189,7.49770221 C3.92371622,8.32505279 3.49861459,9.03618338 2.91385135,9.49908088 L5.46790541,12.5220588 C5.89959568,13.033236 6.60997622,13.0424928 7.06418919,12.5459559 L11.6351351,7.55147059 C12.0893481,7.05493368 12.1073659,6.24647132 11.6756757,5.73529412 L7.26689189,0.513786765 C7.05441892,0.262190882 6.77548703,0.128317647 6.49155405,0.119485294 Z" id="rect3105" stroke="#D40000" stroke-linejoin="round"></path>
                <path d="M2.58079441,6.81462445 C2.58079441,7.63038464 2.00851884,8.29168904 1.30258118,8.29168904 C0.596643539,8.29168904 0.0243679946,7.63038464 0.0243679946,6.81462445 C0.0243679946,5.99886396 0.596643539,5.33755986 1.30258118,5.33755986 C2.00851884,5.33755986 2.58079441,5.99886396 2.58079441,6.81462445 Z" id="path3107" stroke="#FFFFFF" stroke-width="0.5" transform="translate(1.302581, 6.814624) scale(-1, 1) translate(-1.302581, -6.814624) "></path>
            </g>
            <g id="Group" fill="#000000">
                <path d="M2.47591,5.39586745 L2.47591,10.6123159 L3.91189427,10.6123159 C4.8637129,10.6123159 5.53769087,10.4059218 5.9338282,9.99312862 C6.32995568,9.58033542 6.52801942,8.89329296 6.52802927,7.9319962 C6.52801942,7.00463207 6.34645852,6.3515172 5.9833466,5.97264653 C5.62021497,5.58813389 4.99025608,5.39587251 4.09345517,5.39586745 L2.47591,5.39586745 M0.123869841,3.41955651 L4.65464562,3.41955651 C6.01909948,3.41956156 7.08371055,3.83235478 7.84847391,4.65793109 C8.61322247,5.48352256 8.99560414,6.63424707 8.995614,8.11011475 C8.99560414,8.71516935 8.91582724,9.27215858 8.75628327,9.78107742 C8.59671961,10.2843442 8.35463679,10.7452027 8.03003479,11.163648 C7.64489608,11.6669148 7.18274243,12.0288141 6.64356891,12.2493459 C6.10438062,12.4642257 5.3891406,12.5716656 4.49784393,12.5716656 L2.47591,12.5716656 L2.47591,15.8881389 L0.123869841,15.8881389 L0.123869841,3.41955651" id="path3039"></path>
                <path d="M13.7492176,10.731065 L16.6954589,10.731065 L16.6954589,8.83957049 L13.9225271,8.83957049 C13.3723353,8.83957555 12.9927057,8.91591135 12.7836433,9.06858802 C12.5745662,9.22126467 12.4700301,9.48703329 12.470035,9.86589891 C12.4700301,10.1882186 12.5525591,10.4144025 12.7176172,10.5444607 C12.8881745,10.6688619 13.2320364,10.731065 13.7492176,10.731065 M10.6214106,3.41955651 L15.4410355,3.41955651 C16.6569391,3.41956156 17.5729999,3.70795364 18.1892179,4.28472258 C18.8054162,4.85585465 19.1135154,5.70688296 19.1135251,6.8378126 L19.1135251,12.5716656 L12.7918948,12.5716656 C11.9060925,12.5716656 11.2238631,12.3426481 10.7452016,11.8846181 C10.2720445,11.4265931 10.0354609,10.7763018 10.0354609,9.93375409 C10.0354609,8.89329296 10.3078023,8.14687596 10.8524899,7.69449804 C11.4026719,7.24212516 12.3132284,7.01594127 13.5841596,7.01593622 L16.678956,7.01593622 L16.678956,6.78691869 C16.6789462,6.24407733 16.5221445,5.86238313 16.208546,5.64184624 C15.900437,5.42131945 15.347498,5.31105607 14.5497388,5.31104596 L10.6214106,5.31104596 L10.6214106,3.41955651" id="path3041"></path>
                <path d="M21.0281709,10.6632098 L25.9880994,10.6632098 C26.4282411,10.6632098 26.7473488,10.5925261 26.9454224,10.4511586 C27.1489806,10.3097911 27.2507645,10.0836022 27.2507744,9.77259173 C27.2507645,9.4615914 27.1489806,9.23540244 26.9454224,9.09402991 C26.7418446,8.94701544 26.4227369,8.87350313 25.9880994,8.87349807 L23.9579142,8.87349807 C22.7530043,8.87350313 21.9387274,8.68407031 21.5150886,8.30520469 C21.0914449,7.92634413 20.8796205,7.25343436 20.8796255,6.28648047 C20.8796205,5.30257038 21.1354592,4.57877178 21.6471312,4.1150796 C22.1588031,3.65140765 22.951068,3.41956156 24.0239354,3.41955651 L29.0746397,3.41955651 L29.0746397,5.32801227 L24.9234885,5.32801227 C24.2467534,5.32801735 23.8066068,5.39022044 23.6030439,5.51461653 C23.3994709,5.63337067 23.2976869,5.84825044 23.2976869,6.15925076 C23.2976869,6.44199076 23.3857153,6.6512134 23.5617769,6.78691869 C23.7433377,6.91698202 24.0266827,6.98201369 24.4118164,6.98200862 L26.5410336,6.98200862 C27.5148545,6.98201369 28.2576058,7.21668327 28.7692877,7.6860174 C29.2809499,8.14970453 29.5367834,8.82260922 29.5367933,9.70473656 C29.5367834,10.5529414 29.3084612,11.2428124 28.8518117,11.7743547 C28.4006517,12.3058919 27.8174592,12.5716656 27.1022241,12.5716656 L21.0281709,12.5716656 L21.0281709,10.6632098" id="path3043"></path>
                <path d="M31.0635629,10.6632098 L36.0234867,10.6632098 C36.4636283,10.6632098 36.7827359,10.5925261 36.9808095,10.4511586 C37.1843726,10.3097911 37.2861565,10.0836022 37.2861615,9.77259173 C37.2861565,9.4615914 37.1843726,9.23540244 36.9808095,9.09402991 C36.7772317,8.94701544 36.458124,8.87350313 36.0234867,8.87349807 L33.9933013,8.87349807 C32.7883914,8.87350313 31.9741145,8.68407031 31.5504757,8.30520469 C31.126832,7.92634413 30.9150126,7.25343436 30.9150126,6.28648047 C30.9150126,5.30257038 31.1708463,4.57877178 31.6825182,4.1150796 C32.1941902,3.65140765 32.98646,3.41956156 34.0593224,3.41955651 L39.1100267,3.41955651 L39.1100267,5.32801227 L34.9588756,5.32801227 C34.2821455,5.32801735 33.8419939,5.39022044 33.638431,5.51461653 C33.4348579,5.63337067 33.333074,5.84825044 33.333079,6.15925076 C33.333074,6.44199076 33.4211024,6.6512134 33.5971689,6.78691869 C33.7787248,6.91698202 34.0620698,6.98201369 34.4472034,6.98200862 L36.5764207,6.98200862 C37.5502416,6.98201369 38.2929928,7.21668327 38.8046747,7.6860174 C39.316337,8.14970453 39.5721754,8.82260922 39.5721852,9.70473656 C39.5721754,10.5529414 39.3438482,11.2428124 38.8872037,11.7743547 C38.4360438,12.3058919 37.8528462,12.5716656 37.1376111,12.5716656 L31.0635629,12.5716656 L31.0635629,10.6632098" id="path3045"></path>
                <path d="M43.6077919,0.103078127 L43.6077919,3.41955651 L45.6297258,3.41955651 C46.5210175,3.41956156 47.2362625,3.52983002 47.7754507,3.75035173 C48.3146242,3.96524162 48.7767779,4.32431236 49.1619167,4.82756902 C49.4865187,5.24602442 49.7285965,5.70970647 49.8881601,6.21862531 C50.0477042,6.72189715 50.1274811,7.27605782 50.127491,7.88110229 C50.1274811,9.35132295 49.7451043,10.5020525 48.9803557,11.3332859 C48.2155874,12.1588724 47.1509812,12.5716656 45.7865275,12.5716656 L41.2557467,12.5716656 L41.2557467,0.103078127 L43.6077919,0.103078127 M45.0437762,5.39586745 L43.6077919,5.39586745 L43.6077919,10.6123159 L45.225337,10.6123159 C46.1221329,10.6123159 46.7520968,10.4200596 47.1152284,10.0355368 C47.4783403,9.64536707 47.6599013,8.98659507 47.659911,8.05922591 C47.6599013,7.10358627 47.4590853,6.42220095 47.0574586,6.01505473 C46.6613163,5.60227164 45.9900906,5.39587251 45.0437762,5.39586745" id="path3047"></path>
                <path d="M53.4451151,7.99985136 C53.4451103,8.87067456 53.643179,9.5492364 54.0393162,10.0355368 C54.4354438,10.5218423 54.9883827,10.7649926 55.6981235,10.7649926 C56.402355,10.7649926 56.9552941,10.5218423 57.3569356,10.0355368 C57.7585624,9.5492364 57.9593831,8.87067456 57.9593881,7.99985136 C57.9593831,7.12903322 57.7585624,6.45329996 57.3569356,5.97264653 C56.9607934,5.48635113 56.4078592,5.24319584 55.6981235,5.24319078 C54.993882,5.24319584 54.440948,5.48635113 54.0393162,5.97264653 C53.643179,6.45895204 53.4451103,7.13469035 53.4451151,7.99985136 M60.4269728,7.99985136 C60.4269631,9.43614444 60.0005672,10.5840455 59.1477902,11.4435544 C58.3004979,12.2974113 57.1561099,12.7243423 55.7146312,12.7243423 C54.2731427,12.7243423 53.1232555,12.2945827 52.2649645,11.4350738 C51.4066783,10.5755598 50.9775304,9.43048731 50.9775304,7.99985136 C50.9775304,6.56356335 51.4066783,5.4156674 52.2649645,4.55614833 C53.1232555,3.69098731 54.2731427,3.25840427 55.7146312,3.25839416 C57.1451063,3.25840427 58.2867422,3.69098731 59.1395389,4.55614833 C59.9978151,5.4156674 60.4269631,6.56356335 60.4269728,7.99985136" id="path3049"></path>
                <polyline id="path3051" points="64.2892748 12.5716656 61.8381979 12.5716656 61.8381979 0.103078127 64.2892748 0.103078127 64.2892748 12.5716656"></polyline>
                <path d="M65.4116557,3.41955651 L67.070463,3.41955651 L67.070463,0.103078127 L69.4225081,0.103078127 L69.4225081,3.41955651 L71.9065957,3.41955651 L71.9065957,5.24319078 L69.4225081,5.24319078 L69.4225081,8.94135324 C69.4225031,9.61992013 69.5352907,10.0920879 69.7608706,10.3578565 C69.9864457,10.617973 70.3798259,10.7480313 70.9410213,10.7480263 L71.9065957,10.7480263 L71.9065957,12.5716656 L69.7608706,12.5716656 C68.891576,12.5716656 68.2258495,12.3256868 67.7636958,11.8337292 C67.3015422,11.3361145 67.070463,10.6264537 67.070463,9.70473656 L67.070463,5.24319078 L65.4116557,5.24319078 L65.4116557,3.41955651" id="path3053"></path>
            </g>
        </g>
        <g id="logo" transform="translate(916.000000, 147.000000)" fill-rule="nonzero">
            <g id="Group" transform="translate(75.000000, 1.000000)" fill="#D40000">
                <path d="M6.49155405,0.119485294 C6.45099243,0.118147059 6.41052973,0.121702941 6.36993243,0.12545 C6.11733243,0.148840441 5.86932649,0.272644412 5.67060811,0.489880147 L2.57432432,3.87132353 C3.22267297,4.24394176 3.72982865,4.89324206 3.97804054,5.6875 L8.29054054,5.6875 C8.58069892,5.6875 8.8125,5.96674956 8.8125,6.30882353 L8.8125,6.88235294 C8.8125,7.22442691 8.58069892,7.49770221 8.29054054,7.49770221 L7.95608108,7.49770221 L7.95608108,8.36994485 C7.95608108,8.70712279 7.72519459,8.97931985 7.43918919,8.97931985 L6.50168919,8.97931985 C6.21568378,8.97931985 5.9847973,8.70712279 5.9847973,8.36994485 L5.9847973,7.49770221 L4.07939189,7.49770221 C3.92371622,8.32505279 3.49861459,9.03618338 2.91385135,9.49908088 L5.46790541,12.5220588 C5.89959568,13.033236 6.60997622,13.0424928 7.06418919,12.5459559 L11.6351351,7.55147059 C12.0893481,7.05493368 12.1073659,6.24647132 11.6756757,5.73529412 L7.26689189,0.513786765 C7.05441892,0.262190882 6.77548703,0.128317647 6.49155405,0.119485294 Z" id="rect3105" stroke="#D40000" stroke-linejoin="round"></path>
                <path d="M2.58079441,6.81462445 C2.58079441,7.63038464 2.00851884,8.29168904 1.30258118,8.29168904 C0.596643539,8.29168904 0.0243679946,7.63038464 0.0243679946,6.81462445 C0.0243679946,5.99886396 0.596643539,5.33755986 1.30258118,5.33755986 C2.00851884,5.33755986 2.58079441,5.99886396 2.58079441,6.81462445 Z" id="path3107" stroke="#FFFFFF" stroke-width="0.5" transform="translate(1.302581, 6.814624) scale(-1, 1) translate(-1.302581, -6.814624) "></path>
            </g>
            <g id="Group" fill="#000000">
                <path d="M2.47591,5.39586745 L2.47591,10.6123159 L3.91189427,10.6123159 C4.8637129,10.6123159 5.53769087,10.4059218 5.9338282,9.99312862 C6.32995568,9.58033542 6.52801942,8.89329296 6.52802927,7.9319962 C6.52801942,7.00463207 6.34645852,6.3515172 5.9833466,5.97264653 C5.62021497,5.58813389 4.99025608,5.39587251 4.09345517,5.39586745 L2.47591,5.39586745 M0.123869841,3.41955651 L4.65464562,3.41955651 C6.01909948,3.41956156 7.08371055,3.83235478 7.84847391,4.65793109 C8.61322247,5.48352256 8.99560414,6.63424707 8.995614,8.11011475 C8.99560414,8.71516935 8.91582724,9.27215858 8.75628327,9.78107742 C8.59671961,10.2843442 8.35463679,10.7452027 8.03003479,11.163648 C7.64489608,11.6669148 7.18274243,12.0288141 6.64356891,12.2493459 C6.10438062,12.4642257 5.3891406,12.5716656 4.49784393,12.5716656 L2.47591,12.5716656 L2.47591,15.8881389 L0.123869841,15.8881389 L0.123869841,3.41955651" id="path3039"></path>
                <path d="M13.7492176,10.731065 L16.6954589,10.731065 L16.6954589,8.83957049 L13.9225271,8.83957049 C13.3723353,8.83957555 12.9927057,8.91591135 12.7836433,9.06858802 C12.5745662,9.22126467 12.4700301,9.48703329 12.470035,9.86589891 C12.4700301,10.1882186 12.5525591,10.4144025 12.7176172,10.5444607 C12.8881745,10.6688619 13.2320364,10.731065 13.7492176,10.731065 M10.6214106,3.41955651 L15.4410355,3.41955651 C16.6569391,3.41956156 17.5729999,3.70795364 18.1892179,4.28472258 C18.8054162,4.85585465 19.1135154,5.70688296 19.1135251,6.8378126 L19.1135251,12.5716656 L12.7918948,12.5716656 C11.9060925,12.5716656 11.2238631,12.3426481 10.7452016,11.8846181 C10.2720445,11.4265931 10.0354609,10.7763018 10.0354609,9.93375409 C10.0354609,8.89329296 10.3078023,8.14687596 10.8524899,7.69449804 C11.4026719,7.24212516 12.3132284,7.01594127 13.5841596,7.01593622 L16.678956,7.01593622 L16.678956,6.78691869 C16.6789462,6.24407733 16.5221445,5.86238313 16.208546,5.64184624 C15.900437,5.42131945 15.347498,5.31105607 14.5497388,5.31104596 L10.6214106,5.31104596 L10.6214106,3.41955651" id="path3041"></path>
                <path d="M21.0281709,10.6632098 L25.9880994,10.6632098 C26.4282411,10.6632098 26.7473488,10.5925261 26.9454224,10.4511586 C27.1489806,10.3097911 27.2507645,10.0836022 27.2507744,9.77259173 C27.2507645,9.4615914 27.1489806,9.23540244 26.9454224,9.09402991 C26.7418446,8.94701544 26.4227369,8.87350313 25.9880994,8.87349807 L23.9579142,8.87349807 C22.7530043,8.87350313 21.9387274,8.68407031 21.5150886,8.30520469 C21.0914449,7.92634413 20.8796205,7.25343436 20.8796255,6.28648047 C20.8796205,5.30257038 21.1354592,4.57877178 21.6471312,4.1150796 C22.1588031,3.65140765 22.951068,3.41956156 24.0239354,3.41955651 L29.0746397,3.41955651 L29.0746397,5.32801227 L24.9234885,5.32801227 C24.2467534,5.32801735 23.8066068,5.39022044 23.6030439,5.51461653 C23.3994709,5.63337067 23.2976869,5.84825044 23.2976869,6.15925076 C23.2976869,6.44199076 23.3857153,6.6512134 23.5617769,6.78691869 C23.7433377,6.91698202 24.0266827,6.98201369 24.4118164,6.98200862 L26.5410336,6.98200862 C27.5148545,6.98201369 28.2576058,7.21668327 28.7692877,7.6860174 C29.2809499,8.14970453 29.5367834,8.82260922 29.5367933,9.70473656 C29.5367834,10.5529414 29.3084612,11.2428124 28.8518117,11.7743547 C28.4006517,12.3058919 27.8174592,12.5716656 27.1022241,12.5716656 L21.0281709,12.5716656 L21.0281709,10.6632098" id="path3043"></path>
                <path d="M31.0635629,10.6632098 L36.0234867,10.6632098 C36.4636283,10.6632098 36.7827359,10.5925261 36.9808095,10.4511586 C37.1843726,10.3097911 37.2861565,10.0836022 37.2861615,9.77259173 C37.2861565,9.4615914 37.1843726,9.23540244 36.9808095,9.09402991 C36.7772317,8.94701544 36.458124,8.87350313 36.0234867,8.87349807 L33.9933013,8.87349807 C32.7883914,8.87350313 31.9741145,8.68407031 31.5504757,8.30520469 C31.126832,7.92634413 30.9150126,7.25343436 30.9150126,6.28648047 C30.9150126,5.30257038 31.1708463,4.57877178 31.6825182,4.1150796 C32.1941902,3.65140765 32.98646,3.41956156 34.0593224,3.41955651 L39.1100267,3.41955651 L39.1100267,5.32801227 L34.9588756,5.32801227 C34.2821455,5.32801735 33.8419939,5.39022044 33.638431,5.51461653 C33.4348579,5.63337067 33.333074,5.84825044 33.333079,6.15925076 C33.333074,6.44199076 33.4211024,6.6512134 33.5971689,6.78691869 C33.7787248,6.91698202 34.0620698,6.98201369 34.4472034,6.98200862 L36.5764207,6.98200862 C37.5502416,6.98201369 38.2929928,7.21668327 38.8046747,7.6860174 C39.316337,8.14970453 39.5721754,8.82260922 39.5721852,9.70473656 C39.5721754,10.5529414 39.3438482,11.2428124 38.8872037,11.7743547 C38.4360438,12.3058919 37.8528462,12.5716656 37.1376111,12.5716656 L31.0635629,12.5716656 L31.0635629,10.6632098" id="path3045"></path>
                <path d="M43.6077919,0.103078127 L43.6077919,3.41955651 L45.6297258,3.41955651 C46.5210175,3.41956156 47.2362625,3.52983002 47.7754507,3.75035173 C48.3146242,3.96524162 48.7767779,4.32431236 49.1619167,4.82756902 C49.4865187,5.24602442 49.7285965,5.70970647 49.8881601,6.21862531 C50.0477042,6.72189715 50.1274811,7.27605782 50.127491,7.88110229 C50.1274811,9.35132295 49.7451043,10.5020525 48.9803557,11.3332859 C48.2155874,12.1588724 47.1509812,12.5716656 45.7865275,12.5716656 L41.2557467,12.5716656 L41.2557467,0.103078127 L43.6077919,0.103078127 M45.0437762,5.39586745 L43.6077919,5.39586745 L43.6077919,10.6123159 L45.225337,10.6123159 C46.1221329,10.6123159 46.7520968,10.4200596 47.1152284,10.0355368 C47.4783403,9.64536707 47.6599013,8.98659507 47.659911,8.05922591 C47.6599013,7.10358627 47.4590853,6.42220095 47.0574586,6.01505473 C46.6613163,5.60227164 45.9900906,5.39587251 45.0437762,5.39586745" id="path3047"></path>
                <path d="M53.4451151,7.99985136 C53.4451103,8.87067456 53.643179,9.5492364 54.0393162,10.0355368 C54.4354438,10.5218423 54.9883827,10.7649926 55.6981235,10.7649926 C56.402355,10.7649926 56.9552941,10.5218423 57.3569356,10.0355368 C57.7585624,9.5492364 57.9593831,8.87067456 57.9593881,7.99985136 C57.9593831,7.12903322 57.7585624,6.45329996 57.3569356,5.97264653 C56.9607934,5.48635113 56.4078592,5.24319584 55.6981235,5.24319078 C54.993882,5.24319584 54.440948,5.48635113 54.0393162,5.97264653 C53.643179,6.45895204 53.4451103,7.13469035 53.4451151,7.99985136 M60.4269728,7.99985136 C60.4269631,9.43614444 60.0005672,10.5840455 59.1477902,11.4435544 C58.3004979,12.2974113 57.1561099,12.7243423 55.7146312,12.7243423 C54.2731427,12.7243423 53.1232555,12.2945827 52.2649645,11.4350738 C51.4066783,10.5755598 50.9775304,9.43048731 50.9775304,7.99985136 C50.9775304,6.56356335 51.4066783,5.4156674 52.2649645,4.55614833 C53.1232555,3.69098731 54.2731427,3.25840427 55.7146312,3.25839416 C57.1451063,3.25840427 58.2867422,3.69098731 59.1395389,4.55614833 C59.9978151,5.4156674 60.4269631,6.56356335 60.4269728,7.99985136" id="path3049"></path>
                <polyline id="path3051" points="64.2892748 12.5716656 61.8381979 12.5716656 61.8381979 0.103078127 64.2892748 0.103078127 64.2892748 12.5716656"></polyline>
                <path d="M65.4116557,3.41955651 L67.070463,3.41955651 L67.070463,0.103078127 L69.4225081,0.103078127 L69.4225081,3.41955651 L71.9065957,3.41955651 L71.9065957,5.24319078 L69.4225081,5.24319078 L69.4225081,8.94135324 C69.4225031,9.61992013 69.5352907,10.0920879 69.7608706,10.3578565 C69.9864457,10.617973 70.3798259,10.7480313 70.9410213,10.7480263 L71.9065957,10.7480263 L71.9065957,12.5716656 L69.7608706,12.5716656 C68.891576,12.5716656 68.2258495,12.3256868 67.7636958,11.8337292 C67.3015422,11.3361145 67.070463,10.6264537 67.070463,9.70473656 L67.070463,5.24319078 L65.4116557,5.24319078 L65.4116557,3.41955651" id="path3053"></path>
            </g>
        </g>
    </g>
</svg>