<svg width="228" height="228" viewBox="0 0 228 228" fill="none" xmlns="http://www.w3.org/2000/svg">
<path d="M221.267 96.9432L128.576 11.0142C124.612 7.42246 119.422 5.42871 114.035 5.42871C108.648 5.42871 103.457 7.42246 99.4941 11.0142L41.3308 65.1688C48.9497 67.9538 55.7935 72.4689 61.306 78.3472C66.8186 84.2255 70.8444 91.3012 73.0562 98.9991H151.577C152.534 98.9991 153.481 99.185 154.365 99.5463C155.249 99.9076 156.051 100.437 156.727 101.104C157.402 101.772 157.937 102.564 158.301 103.435C158.665 104.306 158.851 105.24 158.847 106.181V117.97C158.851 118.912 158.665 119.845 158.301 120.717C157.937 121.588 157.402 122.38 156.727 123.047C156.051 123.715 155.249 124.244 154.365 124.605C153.481 124.967 152.534 125.152 151.577 125.152H142.509V141.833C142.516 142.774 142.333 143.707 141.972 144.578C141.611 145.449 141.079 146.241 140.405 146.909C139.732 147.577 138.931 148.107 138.049 148.468C137.167 148.83 136.22 149.016 135.265 149.016H115.357C114.401 149.016 113.455 148.83 112.572 148.468C111.69 148.107 110.889 147.577 110.216 146.909C109.542 146.241 109.01 145.449 108.649 144.578C108.288 143.707 108.106 142.774 108.113 141.833V125.152H73.0562C70.9527 132.935 66.9694 140.101 61.4455 146.042C55.9215 151.982 49.0206 156.52 41.3308 159.269L99.7584 213.502C103.722 217.093 108.912 219.087 114.299 219.087C119.686 219.087 124.877 217.093 128.84 213.502L221.373 127.625C223.477 125.639 225.149 123.254 226.288 120.613C227.428 117.972 228.01 115.131 228 112.262C227.99 109.393 227.388 106.555 226.231 103.922C225.073 101.289 223.385 98.9146 221.267 96.9432V96.9432Z" fill="#D40101"/>
<path d="M24.1113 88.5898C20.3309 88.6637 16.613 89.552 13.2188 91.1922C9.42311 93.0459 6.19911 95.8636 3.88004 99.3543C1.56097 102.845 0.230992 106.882 0.0274677 111.048C-0.176056 115.214 0.754324 119.358 2.72241 123.051C4.6905 126.745 7.62493 129.854 11.2224 132.058C14.8199 134.261 18.95 135.479 23.1858 135.586C27.4217 135.693 31.6096 134.684 35.3169 132.664C39.0241 130.644 42.1162 127.687 44.2735 124.097C46.4308 120.507 47.5751 116.416 47.5881 112.245C47.6622 109.165 47.1096 106.101 45.963 103.234C44.8163 100.367 43.0988 97.7543 40.9114 95.5503C38.7239 93.3462 36.1107 91.595 33.2256 90.3997C30.3404 89.2043 27.2416 88.589 24.1113 88.5898V88.5898Z" fill="#D40101"/>
</svg>
