<svg xmlns="http://www.w3.org/2000/svg" width="42" height="42" viewBox="0 0 42 42" fill="none">
    <circle id="background" cx="21" cy="21" r="21" fill="var(--Avatar-Avatar-background)"/>
    <path
        d="M27.1839 26.5409H14.852C13.856 26.5256 12.8673 26.7126 11.9458 27.0904C11.0242 27.4683 10.1888 28.0292 9.49027 28.7392C8.7787 29.4375 8.21559 30.2724 7.83475 31.1938C7.45392 32.1151 7.26318 33.104 7.27406 34.1009V35.2447C10.9424 38.7897 15.8451 40.77 20.9464 40.7673C26.0478 40.77 30.9504 38.7897 34.6188 35.2447V34.1009C34.633 33.1051 34.4456 32.1168 34.0678 31.1953C33.69 30.2739 33.1296 29.4384 32.4205 28.7392C31.736 28.0452 30.9209 27.4936 30.0221 27.1163C29.1233 26.7389 28.1586 26.5434 27.1839 26.5409Z"
        fill="var(--Avatar-Avatar)" />
    <circle cx="21" cy="15.4997" r="7.5" fill="var(--Avatar-Avatar)" />
</svg>